<svg xmlns="http://www.w3.org/2000/svg" viewBox="0 0 1800 1200"
     font-family="Segoe UI, -apple-system, sans-serif">

  <defs>
    <!-- Gradients -->
    <linearGradient id="bgGrad" x1="0" y1="0" x2="0" y2="1">
      <stop offset="0%" stop-color="#0f172a"/>
      <stop offset="100%" stop-color="#1e293b"/>
    </linearGradient>
    <linearGradient id="headerGrad" x1="0" y1="0" x2="1" y2="0">
      <stop offset="0%" stop-color="#6366f1"/>
      <stop offset="100%" stop-color="#8b5cf6"/>
    </linearGradient>
    <linearGradient id="employeeGrad" x1="0" y1="0" x2="1" y2="0">
      <stop offset="0%" stop-color="#3b82f6"/>
      <stop offset="100%" stop-color="#60a5fa"/>
    </linearGradient>
    <linearGradient id="skillGrad" x1="0" y1="0" x2="1" y2="0">
      <stop offset="0%" stop-color="#10b981"/>
      <stop offset="100%" stop-color="#34d399"/>
    </linearGradient>
    <linearGradient id="orgGrad" x1="0" y1="0" x2="1" y2="0">
      <stop offset="0%" stop-color="#f59e0b"/>
      <stop offset="100%" stop-color="#fbbf24"/>
    </linearGradient>
    <linearGradient id="geoGrad" x1="0" y1="0" x2="1" y2="0">
      <stop offset="0%" stop-color="#ef4444"/>
      <stop offset="100%" stop-color="#f87171"/>
    </linearGradient>
    <linearGradient id="historyGrad" x1="0" y1="0" x2="1" y2="0">
      <stop offset="0%" stop-color="#8b5cf6"/>
      <stop offset="100%" stop-color="#a78bfa"/>
    </linearGradient>
    <linearGradient id="edgeGrad" x1="0" y1="0" x2="1" y2="0">
      <stop offset="0%" stop-color="#64748b"/>
      <stop offset="100%" stop-color="#94a3b8"/>
    </linearGradient>

    <!-- Drop shadow -->
    <filter id="shadow" x="-4%" y="-4%" width="108%" height="108%">
      <feDropShadow dx="2" dy="2" stdDeviation="3" flood-color="#000" flood-opacity="0.3"/>
    </filter>

    <!-- Arrow marker -->
    <marker id="arrow" viewBox="0 0 10 6" refX="10" refY="3"
            markerWidth="8" markerHeight="6" orient="auto-start-reverse">
      <path d="M0,0 L10,3 L0,6 Z" fill="#94a3b8"/>
    </marker>
    <marker id="arrowBlue" viewBox="0 0 10 6" refX="10" refY="3"
            markerWidth="8" markerHeight="6" orient="auto-start-reverse">
      <path d="M0,0 L10,3 L0,6 Z" fill="#60a5fa"/>
    </marker>
    <marker id="arrowGreen" viewBox="0 0 10 6" refX="10" refY="3"
            markerWidth="8" markerHeight="6" orient="auto-start-reverse">
      <path d="M0,0 L10,3 L0,6 Z" fill="#34d399"/>
    </marker>
  </defs>

  <!-- Background -->
  <rect width="1800" height="1200" fill="url(#bgGrad)" rx="12"/>

  <!-- Title bar -->
  <rect x="40" y="20" width="1720" height="56" rx="10" fill="url(#headerGrad)" filter="url(#shadow)"/>
  <text x="60" y="50" fill="white" font-size="20" font-weight="700">🏢 DXC Talent Graph — Ontology</text>
  <text x="1080" y="50" fill="rgba(255,255,255,0.8)" font-size="14">130,475 nodes · 2,609,663 edges · PostgreSQL + Apache AGE</text>

  <!-- ═══════════════════════════════════════════════════════════════ -->
  <!-- CENTER: Employee node (hero) -->
  <!-- ═══════════════════════════════════════════════════════════════ -->
  <rect x="640" y="420" width="520" height="280" rx="14" fill="#1e293b" stroke="#3b82f6" stroke-width="2.5" filter="url(#shadow)"/>
  <rect x="640" y="420" width="520" height="40" rx="14" fill="url(#employeeGrad)"/>
  <rect x="640" y="446" width="520" height="14" fill="url(#employeeGrad)"/>
  <text x="660" y="447" fill="white" font-size="16" font-weight="700">👤 Employee — 130,000</text>

  <!-- Employee properties (compact) -->
  <text x="660" y="485" fill="#94a3b8" font-size="11" font-family="Cascadia Code, Consolas, monospace">name · email · job_title · job_level · skill_level</text>
  <text x="660" y="502" fill="#94a3b8" font-size="11" font-family="Cascadia Code, Consolas, monospace">employment_status · is_bench · bench_duration_days</text>
  <text x="660" y="519" fill="#94a3b8" font-size="11" font-family="Cascadia Code, Consolas, monospace">impressiveness_score · hourly_cost · bill_rate</text>
  <text x="660" y="536" fill="#94a3b8" font-size="11" font-family="Cascadia Code, Consolas, monospace">delivery_model · eqf_level · meces_level</text>
  <text x="660" y="553" fill="#94a3b8" font-size="11" font-family="Cascadia Code, Consolas, monospace">years_of_experience · cv_freshness_days</text>
  <text x="660" y="570" fill="#94a3b8" font-size="11" font-family="Cascadia Code, Consolas, monospace">resume_summary · education_degree · workday_id</text>

  <!-- Counts badge -->
  <rect x="1060" y="670" width="90" height="22" rx="4" fill="rgba(59,130,246,0.2)"/>
  <text x="1072" y="685" fill="#60a5fa" font-size="10" font-weight="600">32 properties</text>

  <!-- ═══════════════════════════════════════════════════════════════ -->
  <!-- TOP ROW: Skills & Certifications -->
  <!-- ═══════════════════════════════════════════════════════════════ -->

  <!-- Skill -->
  <rect x="40" y="100" width="240" height="110" rx="10" fill="#1e293b" stroke="#10b981" stroke-width="2" filter="url(#shadow)"/>
  <rect x="40" y="100" width="240" height="32" rx="10" fill="url(#skillGrad)"/>
  <rect x="40" y="122" width="240" height="10" fill="url(#skillGrad)"/>
  <text x="55" y="124" fill="white" font-size="13" font-weight="700">🔧 Skill — 96</text>
  <text x="55" y="156" fill="#94a3b8" font-size="11">name</text>
  <text x="55" y="173" fill="#64748b" font-size="10">e.g. "Django", "Kubernetes"</text>
  <text x="55" y="195" fill="#34d399" font-size="10" font-weight="600">← HAS_SKILL</text>

  <!-- SkillDomain -->
  <rect x="320" y="100" width="240" height="110" rx="10" fill="#1e293b" stroke="#10b981" stroke-width="2" filter="url(#shadow)"/>
  <rect x="320" y="100" width="240" height="32" rx="10" fill="url(#skillGrad)"/>
  <rect x="320" y="122" width="240" height="10" fill="url(#skillGrad)"/>
  <text x="335" y="124" fill="white" font-size="13" font-weight="700">📂 SkillDomain — 13</text>
  <text x="335" y="156" fill="#94a3b8" font-size="11">name</text>
  <text x="335" y="173" fill="#64748b" font-size="10">Python, Java, AI/ML, SAP...</text>
  <text x="335" y="195" fill="#34d399" font-size="10" font-weight="600">← SPECIALIZES_IN</text>

  <!-- Certification -->
  <rect x="600" y="100" width="280" height="110" rx="10" fill="#1e293b" stroke="#10b981" stroke-width="2" filter="url(#shadow)"/>
  <rect x="600" y="100" width="280" height="32" rx="10" fill="url(#skillGrad)"/>
  <rect x="600" y="122" width="280" height="10" fill="url(#skillGrad)"/>
  <text x="615" y="124" fill="white" font-size="13" font-weight="700">📜 Certification — 39</text>
  <text x="615" y="156" fill="#94a3b8" font-size="11">name</text>
  <text x="615" y="173" fill="#64748b" font-size="10">e.g. "PMP", "AZ-305", "CKA"</text>
  <text x="615" y="195" fill="#34d399" font-size="10" font-weight="600">← HOLDS_CERT (status, expiry)</text>

  <!-- Language -->
  <rect x="920" y="100" width="240" height="110" rx="10" fill="#1e293b" stroke="#10b981" stroke-width="2" filter="url(#shadow)"/>
  <rect x="920" y="100" width="240" height="32" rx="10" fill="url(#skillGrad)"/>
  <rect x="920" y="122" width="240" height="10" fill="url(#skillGrad)"/>
  <text x="935" y="124" fill="white" font-size="13" font-weight="700">🗣 Language — 18</text>
  <text x="935" y="156" fill="#94a3b8" font-size="11">name</text>
  <text x="935" y="173" fill="#64748b" font-size="10">CEFR: A1–C2, is_native</text>
  <text x="935" y="195" fill="#34d399" font-size="10" font-weight="600">← SPEAKS (level, is_native)</text>

  <!-- University -->
  <rect x="1200" y="100" width="260" height="110" rx="10" fill="#1e293b" stroke="#10b981" stroke-width="2" filter="url(#shadow)"/>
  <rect x="1200" y="100" width="260" height="32" rx="10" fill="url(#skillGrad)"/>
  <rect x="1200" y="122" width="260" height="10" fill="url(#skillGrad)"/>
  <text x="1215" y="124" fill="white" font-size="13" font-weight="700">🎓 University — 75</text>
  <text x="1215" y="156" fill="#94a3b8" font-size="11">name</text>
  <text x="1215" y="173" fill="#64748b" font-size="10">e.g. "IIT Bombay", "TU Munich"</text>
  <text x="1215" y="195" fill="#34d399" font-size="10" font-weight="600">← STUDIED_AT (degree, eqf)</text>

  <!-- ═══════════════════════════════════════════════════════════════ -->
  <!-- LEFT SIDE: Organization -->
  <!-- ═══════════════════════════════════════════════════════════════ -->

  <!-- ServiceLine -->
  <rect x="40" y="340" width="240" height="100" rx="10" fill="#1e293b" stroke="#f59e0b" stroke-width="2" filter="url(#shadow)"/>
  <rect x="40" y="340" width="240" height="32" rx="10" fill="url(#orgGrad)"/>
  <rect x="40" y="362" width="240" height="10" fill="url(#orgGrad)"/>
  <text x="55" y="364" fill="white" font-size="13" font-weight="700">🏗 ServiceLine — 8</text>
  <text x="55" y="396" fill="#94a3b8" font-size="11">name</text>
  <text x="55" y="413" fill="#64748b" font-size="10">GBS/GIS service lines</text>
  <text x="55" y="430" fill="#fbbf24" font-size="10" font-weight="600">← BELONGS_TO_SL</text>

  <!-- Offering -->
  <rect x="40" y="470" width="240" height="100" rx="10" fill="#1e293b" stroke="#f59e0b" stroke-width="2" filter="url(#shadow)"/>
  <rect x="40" y="470" width="240" height="32" rx="10" fill="url(#orgGrad)"/>
  <rect x="40" y="492" width="240" height="10" fill="url(#orgGrad)"/>
  <text x="55" y="494" fill="white" font-size="13" font-weight="700">📦 Offering — 8</text>
  <text x="55" y="526" fill="#94a3b8" font-size="11">name</text>
  <text x="55" y="543" fill="#64748b" font-size="10">Cloud, AI, Security...</text>
  <text x="55" y="560" fill="#fbbf24" font-size="10" font-weight="600">← WORKS_IN_OFFERING</text>

  <!-- Manager -->
  <rect x="40" y="600" width="240" height="100" rx="10" fill="#1e293b" stroke="#f59e0b" stroke-width="2" filter="url(#shadow)"/>
  <rect x="40" y="600" width="240" height="32" rx="10" fill="url(#orgGrad)"/>
  <rect x="40" y="622" width="240" height="10" fill="url(#orgGrad)"/>
  <text x="55" y="624" fill="white" font-size="13" font-weight="700">👔 Manager — 80</text>
  <text x="55" y="656" fill="#94a3b8" font-size="11">name · email · employee_id</text>
  <text x="55" y="673" fill="#64748b" font-size="10">My Team dashboard</text>
  <text x="55" y="690" fill="#fbbf24" font-size="10" font-weight="600">← REPORTS_TO</text>

  <!-- ═══════════════════════════════════════════════════════════════ -->
  <!-- RIGHT SIDE: Geography -->
  <!-- ═══════════════════════════════════════════════════════════════ -->

  <!-- Location -->
  <rect x="1280" y="340" width="280" height="130" rx="10" fill="#1e293b" stroke="#ef4444" stroke-width="2" filter="url(#shadow)"/>
  <rect x="1280" y="340" width="280" height="32" rx="10" fill="url(#geoGrad)"/>
  <rect x="1280" y="362" width="280" height="10" fill="url(#geoGrad)"/>
  <text x="1295" y="364" fill="white" font-size="13" font-weight="700">📍 Location — 46</text>
  <text x="1295" y="396" fill="#94a3b8" font-size="11">city · country · country_code</text>
  <text x="1295" y="413" fill="#94a3b8" font-size="11">subregion · zip · timezone</text>
  <text x="1295" y="430" fill="#94a3b8" font-size="11">delivery_model · address</text>
  <text x="1295" y="455" fill="#f87171" font-size="10" font-weight="600">← LOCATED_IN</text>

  <!-- Country -->
  <rect x="1280" y="510" width="280" height="90" rx="10" fill="#1e293b" stroke="#ef4444" stroke-width="2" filter="url(#shadow)"/>
  <rect x="1280" y="510" width="280" height="32" rx="10" fill="url(#geoGrad)"/>
  <rect x="1280" y="532" width="280" height="10" fill="url(#geoGrad)"/>
  <text x="1295" y="534" fill="white" font-size="13" font-weight="700">🌍 Country — 19</text>
  <text x="1295" y="566" fill="#94a3b8" font-size="11">name · code · region</text>
  <text x="1295" y="588" fill="#f87171" font-size="10" font-weight="600">← IN_COUNTRY (from Location)</text>

  <!-- ═══════════════════════════════════════════════════════════════ -->
  <!-- BOTTOM ROW: Client & Project History -->
  <!-- ═══════════════════════════════════════════════════════════════ -->

  <!-- Client -->
  <rect x="500" y="790" width="280" height="110" rx="10" fill="#1e293b" stroke="#8b5cf6" stroke-width="2" filter="url(#shadow)"/>
  <rect x="500" y="790" width="280" height="32" rx="10" fill="url(#historyGrad)"/>
  <rect x="500" y="812" width="280" height="10" fill="url(#historyGrad)"/>
  <text x="515" y="814" fill="white" font-size="13" font-weight="700">🏦 Client — 36</text>
  <text x="515" y="846" fill="#94a3b8" font-size="11">name</text>
  <text x="515" y="863" fill="#64748b" font-size="10">Telefónica, Shell, BMW, HSBC...</text>
  <text x="515" y="885" fill="#a78bfa" font-size="10" font-weight="600">← WORKED_FOR (role, dates)</text>

  <!-- Project -->
  <rect x="840" y="790" width="280" height="110" rx="10" fill="#1e293b" stroke="#8b5cf6" stroke-width="2" filter="url(#shadow)"/>
  <rect x="840" y="790" width="280" height="32" rx="10" fill="url(#historyGrad)"/>
  <rect x="840" y="812" width="280" height="10" fill="url(#historyGrad)"/>
  <text x="855" y="814" fill="white" font-size="13" font-weight="700">📋 Project — 22</text>
  <text x="855" y="846" fill="#94a3b8" font-size="11">name</text>
  <text x="855" y="863" fill="#64748b" font-size="10">Cloud Migration, SAP S/4HANA...</text>
  <text x="855" y="885" fill="#a78bfa" font-size="10" font-weight="600">← WORKED_ON (role, dates)</text>

  <!-- ═══════════════════════════════════════════════════════════════ -->
  <!-- EDGES (arrows from Employee to each node) -->
  <!-- ═══════════════════════════════════════════════════════════════ -->

  <!-- Top: Employee → Skill -->
  <line x1="700" y1="420" x2="160" y2="210" stroke="#34d399" stroke-width="1.5" stroke-dasharray="6,3" marker-end="url(#arrowGreen)"/>
  <!-- Top: Employee → SkillDomain -->
  <line x1="760" y1="420" x2="440" y2="210" stroke="#34d399" stroke-width="1.5" stroke-dasharray="6,3" marker-end="url(#arrowGreen)"/>
  <!-- Top: Employee → Certification -->
  <line x1="840" y1="420" x2="740" y2="210" stroke="#34d399" stroke-width="1.5" stroke-dasharray="6,3" marker-end="url(#arrowGreen)"/>
  <!-- Top: Employee → Language -->
  <line x1="960" y1="420" x2="1040" y2="210" stroke="#34d399" stroke-width="1.5" stroke-dasharray="6,3" marker-end="url(#arrowGreen)"/>
  <!-- Top: Employee → University -->
  <line x1="1060" y1="420" x2="1330" y2="210" stroke="#34d399" stroke-width="1.5" stroke-dasharray="6,3" marker-end="url(#arrowGreen)"/>

  <!-- Left: Employee → ServiceLine -->
  <line x1="640" y1="480" x2="280" y2="390" stroke="#fbbf24" stroke-width="1.5" stroke-dasharray="6,3" marker-end="url(#arrow)"/>
  <!-- Left: Employee → Offering -->
  <line x1="640" y1="530" x2="280" y2="520" stroke="#fbbf24" stroke-width="1.5" stroke-dasharray="6,3" marker-end="url(#arrow)"/>
  <!-- Left: Employee → Manager -->
  <line x1="640" y1="600" x2="280" y2="650" stroke="#fbbf24" stroke-width="1.5" stroke-dasharray="6,3" marker-end="url(#arrow)"/>

  <!-- Right: Employee → Location -->
  <line x1="1160" y1="480" x2="1280" y2="405" stroke="#f87171" stroke-width="1.5" stroke-dasharray="6,3" marker-end="url(#arrow)"/>
  <!-- Location → Country -->
  <line x1="1420" y1="470" x2="1420" y2="510" stroke="#f87171" stroke-width="1.5" marker-end="url(#arrow)"/>

  <!-- Bottom: Employee → Client -->
  <line x1="800" y1="700" x2="640" y2="790" stroke="#a78bfa" stroke-width="1.5" stroke-dasharray="6,3" marker-end="url(#arrow)"/>
  <!-- Bottom: Employee → Project -->
  <line x1="960" y1="700" x2="980" y2="790" stroke="#a78bfa" stroke-width="1.5" stroke-dasharray="6,3" marker-end="url(#arrow)"/>

  <!-- ═══════════════════════════════════════════════════════════════ -->
  <!-- EDGE LABELS on arrows -->
  <!-- ═══════════════════════════════════════════════════════════════ -->
  <text x="380" y="310" fill="#34d399" font-size="9" font-weight="600" transform="rotate(-30,380,310)">HAS_SKILL (714K)</text>
  <text x="540" y="310" fill="#34d399" font-size="9" font-weight="600" transform="rotate(-20,540,310)">SPECIALIZES_IN (130K)</text>
  <text x="740" y="310" fill="#34d399" font-size="9" font-weight="600" transform="rotate(-15,740,310)">HOLDS_CERT (183K)</text>
  <text x="960" y="310" fill="#34d399" font-size="9" font-weight="600" transform="rotate(10,960,310)">SPEAKS (261K)</text>
  <text x="1190" y="310" fill="#34d399" font-size="9" font-weight="600" transform="rotate(20,1190,310)">STUDIED_AT (130K)</text>

  <text x="390" y="430" fill="#fbbf24" font-size="9" font-weight="600">BELONGS_TO_SL</text>
  <text x="410" y="530" fill="#fbbf24" font-size="9" font-weight="600">WORKS_IN_OFFERING</text>
  <text x="430" y="640" fill="#fbbf24" font-size="9" font-weight="600">REPORTS_TO</text>

  <text x="1170" y="450" fill="#f87171" font-size="9" font-weight="600">LOCATED_IN</text>
  <text x="1430" y="495" fill="#f87171" font-size="9" font-weight="600">IN_COUNTRY</text>

  <text x="660" y="760" fill="#a78bfa" font-size="9" font-weight="600">WORKED_FOR (336K)</text>
  <text x="960" y="760" fill="#a78bfa" font-size="9" font-weight="600">WORKED_ON (336K)</text>

  <!-- ═══════════════════════════════════════════════════════════════ -->
  <!-- LEGEND -->
  <!-- ═══════════════════════════════════════════════════════════════ -->
  <rect x="40" y="940" width="1720" height="240" rx="10" fill="rgba(255,255,255,0.03)" stroke="rgba(255,255,255,0.08)"/>
  <text x="60" y="968" fill="#e2e8f0" font-size="14" font-weight="700">Legend</text>

  <!-- Color key -->
  <rect x="60" y="985" width="14" height="14" rx="3" fill="#3b82f6"/>
  <text x="82" y="997" fill="#cbd5e1" font-size="11">Employee (central node — 32 properties)</text>

  <rect x="60" y="1010" width="14" height="14" rx="3" fill="#10b981"/>
  <text x="82" y="1022" fill="#cbd5e1" font-size="11">Skills &amp; Qualifications: Skill, SkillDomain, Certification, Language, University</text>

  <rect x="60" y="1035" width="14" height="14" rx="3" fill="#f59e0b"/>
  <text x="82" y="1047" fill="#cbd5e1" font-size="11">Organization: ServiceLine, Offering, Manager</text>

  <rect x="60" y="1060" width="14" height="14" rx="3" fill="#ef4444"/>
  <text x="82" y="1072" fill="#cbd5e1" font-size="11">Geography: Location (46 offices), Country (19)</text>

  <rect x="60" y="1085" width="14" height="14" rx="3" fill="#8b5cf6"/>
  <text x="82" y="1097" fill="#cbd5e1" font-size="11">Engagement History: Client (36), Project (22)</text>

  <!-- Edge property key -->
  <text x="700" y="997" fill="#e2e8f0" font-size="12" font-weight="600">Edge Properties:</text>
  <text x="700" y="1017" fill="#94a3b8" font-size="11">HAS_SKILL → level, years_of_experience, active, is_primary</text>
  <text x="700" y="1037" fill="#94a3b8" font-size="11">HOLDS_CERT → issue_date, expiry_date, status, credential_id, has_evidence</text>
  <text x="700" y="1057" fill="#94a3b8" font-size="11">SPEAKS → level (CEFR A1–C2), is_native</text>
  <text x="700" y="1077" fill="#94a3b8" font-size="11">STUDIED_AT → degree, field, graduation_year, eqf_level, meces_level</text>
  <text x="700" y="1097" fill="#94a3b8" font-size="11">WORKED_FOR → role, project, start_date, end_date, is_current</text>

  <!-- Stats -->
  <text x="1300" y="997" fill="#e2e8f0" font-size="12" font-weight="600">Key Metrics:</text>
  <text x="1300" y="1017" fill="#94a3b8" font-size="11">🟢 Active: 77,857 (60%)</text>
  <text x="1300" y="1037" fill="#94a3b8" font-size="11">🟡 Bench: 32,487 (25%)</text>
  <text x="1300" y="1057" fill="#94a3b8" font-size="11">🔴 Notice: 13,007 (10%)</text>
  <text x="1300" y="1077" fill="#94a3b8" font-size="11">📊 Avg Score: 45.7 / 100</text>
  <text x="1300" y="1097" fill="#94a3b8" font-size="11">🌐 19 countries, 46 offices</text>

  <!-- Delivery model bar -->
  <text x="60" y="1140" fill="#e2e8f0" font-size="12" font-weight="600">Delivery Model:</text>
  <rect x="200" y="1126" width="550" height="20" rx="4" fill="rgba(255,255,255,0.05)"/>
  <rect x="200" y="1126" width="253" height="20" rx="4" fill="rgba(239,68,68,0.4)"/>
  <rect x="453" y="1126" width="204" height="20" rx="0" fill="rgba(245,158,11,0.4)"/>
  <rect x="657" y="1126" width="93" height="20" rx="0" fill="rgba(16,185,129,0.4)"/>
  <text x="290" y="1141" fill="white" font-size="10" font-weight="600">Offshore 46%</text>
  <text x="510" y="1141" fill="white" font-size="10" font-weight="600">Onshore 37%</text>
  <text x="668" y="1141" fill="white" font-size="10" font-weight="600">Near 17%</text>

  <text x="60" y="1165" fill="#e2e8f0" font-size="12" font-weight="600">Certifications:</text>
  <rect x="200" y="1151" width="550" height="20" rx="4" fill="rgba(255,255,255,0.05)"/>
  <rect x="200" y="1151" width="329" height="20" rx="4" fill="rgba(52,211,153,0.4)"/>
  <rect x="529" y="1151" width="213" height="20" rx="0" fill="rgba(239,68,68,0.3)"/>
  <rect x="742" y="1151" width="8" height="20" rx="0" fill="rgba(245,158,11,0.5)"/>
  <text x="310" y="1166" fill="white" font-size="10" font-weight="600">Valid 109K (60%)</text>
  <text x="580" y="1166" fill="white" font-size="10" font-weight="600">Expired 71K (39%)</text>
</svg>
